<svg width="128" height="128" viewBox="0 0 128 128" fill="none" xmlns="http://www.w3.org/2000/svg">
<g clip-path="url(#clip0_419_150)">
<path fill-rule="evenodd" clip-rule="evenodd" d="M108.676 125.031C110.994 124.588 113.025 123.989 114.822 123.234C116.645 122.583 118.364 121.567 119.875 119.901C121.802 117.974 123.182 115.421 124.094 112.062C128.833 94.5872 129.406 36.7463 125.031 19.3498C124.588 17.032 123.989 14.9746 123.234 13.2037C122.583 11.3807 121.567 9.6619 119.901 8.15143C117.974 6.22426 115.421 4.844 112.036 3.9325C94.5611 -0.807271 36.7202 -1.38021 19.3237 2.99497C17.0059 3.43769 14.9745 4.01063 13.1776 4.79191C11.3286 5.44298 9.63578 6.45865 8.1253 8.12538C6.22418 10.0265 4.84392 12.5787 3.90638 15.9382C-0.833395 33.4389 -1.40633 91.2538 2.96884 108.65C3.41157 110.968 4.01055 113.025 4.76579 114.822C5.41686 116.645 6.43253 118.338 8.09926 119.849C10.0264 121.776 12.5786 123.156 15.9381 124.068C33.4128 128.833 91.2797 129.406 108.676 125.031Z" fill="#F5F5D6"/>
<path d="M90.6667 67.576C87.818 66.5669 84.7417 66.3853 81.794 67.0522C78.8463 67.719 76.1478 69.2071 74.0108 71.3441C71.8738 73.4811 70.3857 76.1796 69.7189 79.1273C69.052 82.075 69.2336 85.1513 70.2427 88H40C39.2928 88 38.6145 87.7191 38.1144 87.219C37.6143 86.7189 37.3334 86.0406 37.3334 85.3333V42.6667C37.3334 41.9594 37.6143 41.2811 38.1144 40.781C38.6145 40.281 39.2928 40 40 40H88C88.7073 40 89.3856 40.281 89.8857 40.781C90.3858 41.2811 90.6667 41.9594 90.6667 42.6667V67.576ZM64.16 63.1547L47.0614 48.6347L43.608 52.6987L64.1947 70.1787L84.4107 52.6853L80.9227 48.6507L64.1627 63.1547H64.16ZM82.6667 90.6667L73.2374 81.2373L77.0107 77.4667L82.6667 83.1253L92.096 73.696L95.8667 77.4667L82.6667 90.6667Z" fill="#071312"/>
</g>
<defs>
<clipPath id="clip0_419_150">
<rect width="128" height="128" fill="white"/>
</clipPath>
</defs>
</svg>
